<?xml version="1.0" encoding="UTF-8"?>
<!DOCTYPE svg PUBLIC "-//W3C//DTD SVG 1.0//EN" "http://www.w3.org/TR/2001/REC-SVG-20010904/DTD/svg10.dtd">
<svg xmlns="http://www.w3.org/2000/svg" xmlns:xlink="http://www.w3.org/1999/xlink" width="600" height="360">
  <g id="scruffy_graph">
    <g id="background" transform="translate(0.0, 0.0)">
      <defs>
        <linearGradient id="BackgroundGradient" x1="0%" y1="0%" x2="0%" y2="100%">
          <stop offset="5%" stop-color="#FFFFFF"/>
          <stop offset="95%" stop-color="#FFFFFF"/>
        </linearGradient>
      </defs>
      <rect width="600.0" height="360.0" x="0" y="0" fill="url(#BackgroundGradient) #FFFFFF"/>
    </g>
    <g id="graphs" transform="translate(-90.0, 43.199999999999996)">
      <g id="component_graphs_graph_0" class="graph_layer">
        <path d="M270.0,158.4 L390.51788174492185,197.55863352719334 A126.72000000000001,126.72000000000001 0, 0, 1, 207.68760378890912 268.7409428926182 Z" stroke="none" fill="#FFB200"/>
        <text x="325.1699909064399" y="309.6069717380103" font-size="19.008" font-family="" fill="#999999" text-anchor="middle">28%</text>
        <path d="M270.0,158.4 L207.68760378890912,268.7409428926182 A126.72000000000001,126.72000000000001 0, 0, 1, 147.443150572168 126.1854526910013 Z" stroke="none" fill="#FFFF00"/>
        <text x="129.93025281274342" y="227.0979694470478" font-size="19.008" font-family="" fill="#999999" text-anchor="middle">20%</text>
        <path d="M270.0,158.4 L147.443150572168,126.1854526910013 A126.72000000000001,126.72000000000001 0, 0, 1, 241.29832963180718 34.973209885067476 Z" stroke="none" fill="#660099"/>
        <text x="164.02088556000155" y="58.85406924113288" font-size="19.008" font-family="" fill="#999999" text-anchor="middle">17%</text>
        <path d="M270.0,158.4 L241.29832963180718,34.973209885067476 A126.72000000000001,126.72000000000001 0, 0, 1, 270.00000000000006 31.679999999999993 Z" stroke="none" fill="#E9E9FF"/>
        <text x="252.66601024640497" y="16.83119339595803" font-size="19.008" font-family="" fill="#999999" text-anchor="middle">3%</text>
        <path d="M270.0,158.4 L270.00000000000006,31.679999999999993 A126.72000000000001,126.72000000000001 0, 0, 1, 277.2342941125301 31.88666715048008 Z" stroke="none" fill="#FFF7E6"/>
        <text x="274.34234730789274" y="15.902012789774242" font-size="19.008" font-family="" fill="#999999" text-anchor="middle">0%</text>
        <path d="M270.0,158.4 L277.2342941125301,31.88666715048008 A126.72000000000001,126.72000000000001 0, 0, 1, 319.3283078725399 41.6752106772862 Z" stroke="none" fill="#FFFFE6"/>
        <text x="304.4420044418316" y="19.791851862081025" font-size="19.008" font-family="" fill="#999999" text-anchor="middle">5%</text>
        <path d="M270.0,158.4 L319.3283078725399,41.6752106772862 A126.72000000000001,126.72000000000001 0, 0, 1, 385.26856645132466 105.75860955240105 Z" stroke="none" fill="#F7E6FF"/>
        <text x="375.9791144399986" y="58.854069241133026" font-size="19.008" font-family="" fill="#999999" text-anchor="middle">11%</text>
        <path d="M270.0,158.4 L385.26856645132466,105.75860955240105 A126.72000000000001,126.72000000000001 0, 0, 1, 388.08580978167527 112.4250075779668 Z" stroke="none" fill="#0F0F6B"/>
        <text x="410.06974718725667" y="108.71003055295232" font-size="19.008" font-family="" fill="#999999" text-anchor="middle">0%</text>
        <path d="M270.0,158.4 L388.08580978167527,112.4250075779668 A126.72000000000001,126.72000000000001 0, 0, 1, 390.51788174492185 119.24136647280662 Z" stroke="none" fill="#996B00"/>
        <text x="413.22062131248066" y="116.80298507008878" font-size="19.008" font-family="" fill="#999999" text-anchor="middle">0%</text>
        <path d="M270.0,158.4 L390.51788174492185,119.24136647280662 A126.72000000000001,126.72000000000001 0, 0, 1, 390.51788174492185 197.5586335271933 Z" stroke="none" fill="#999900"/>
        <text x="422.064" y="167.90399999999994" font-size="19.008" font-family="" fill="#999999" text-anchor="middle">10%</text>
      </g>
    </g>
    <g id="title" transform="translate(30.0, 7.2)">
      <text class="title" x="270.0" y="25.200000000000003" font-size="25.200000000000003" font-family="" fill="#999999" stroke="none" stroke-width="0" text-anchor="middle">ALT Genotype % Reported Dist. (Top 100)</text>
    </g>
    <g id="legend" transform="translate(360.0, 54.0)">
      <rect x="0" y="0.0" width="12.672" height="12.672" fill="#FFB200"/>
      <text x="25.344" y="15.206399999999999" font-size="20.275199999999998" font-family="" style="color: #999999" fill="#999999">0-10%</text>
      <rect x="0" y="25.344" width="12.672" height="12.672" fill="#FFFF00"/>
      <text x="25.344" y="40.550399999999996" font-size="20.275199999999998" font-family="" style="color: #999999" fill="#999999">10-20%</text>
      <rect x="0" y="50.688" width="12.672" height="12.672" fill="#660099"/>
      <text x="25.344" y="65.8944" font-size="20.275199999999998" font-family="" style="color: #999999" fill="#999999">20-30%</text>
      <rect x="0" y="76.03200000000001" width="12.672" height="12.672" fill="#E9E9FF"/>
      <text x="25.344" y="91.23840000000001" font-size="20.275199999999998" font-family="" style="color: #999999" fill="#999999">30-40%</text>
      <rect x="0" y="101.376" width="12.672" height="12.672" fill="#FFF7E6"/>
      <text x="25.344" y="116.5824" font-size="20.275199999999998" font-family="" style="color: #999999" fill="#999999">40-50%</text>
      <rect x="0" y="126.72" width="12.672" height="12.672" fill="#FFFFE6"/>
      <text x="25.344" y="141.9264" font-size="20.275199999999998" font-family="" style="color: #999999" fill="#999999">50-60%</text>
      <rect x="0" y="152.06400000000002" width="12.672" height="12.672" fill="#F7E6FF"/>
      <text x="25.344" y="167.27040000000002" font-size="20.275199999999998" font-family="" style="color: #999999" fill="#999999">60-70%</text>
      <rect x="0" y="177.40800000000002" width="12.672" height="12.672" fill="#0F0F6B"/>
      <text x="25.344" y="192.61440000000002" font-size="20.275199999999998" font-family="" style="color: #999999" fill="#999999">70-80%</text>
      <rect x="0" y="202.752" width="12.672" height="12.672" fill="#996B00"/>
      <text x="25.344" y="217.9584" font-size="20.275199999999998" font-family="" style="color: #999999" fill="#999999">80-90%</text>
      <rect x="0" y="228.096" width="12.672" height="12.672" fill="#999900"/>
      <text x="25.344" y="243.3024" font-size="20.275199999999998" font-family="" style="color: #999999" fill="#999999">90-100%</text>
    </g>
  </g>
</svg>
