<?xml version="1.0" encoding="UTF-8"?>
<!DOCTYPE svg PUBLIC "-//W3C//DTD SVG 1.0//EN" "http://www.w3.org/TR/2001/REC-SVG-20010904/DTD/svg10.dtd">
<svg xmlns="http://www.w3.org/2000/svg" xmlns:xlink="http://www.w3.org/1999/xlink" width="600" height="360">
  <g id="scruffy_graph">
    <g id="background" transform="translate(0.0, 0.0)">
      <defs>
        <linearGradient id="BackgroundGradient" x1="0%" y1="0%" x2="0%" y2="100%">
          <stop offset="5%" stop-color="#FFFFFF"/>
          <stop offset="95%" stop-color="#FFFFFF"/>
        </linearGradient>
      </defs>
      <rect width="600.0" height="360.0" x="0" y="0" fill="url(#BackgroundGradient) #FFFFFF"/>
    </g>
    <g id="graphs" transform="translate(-90.0, 43.199999999999996)">
      <g id="component_graphs_graph_0" class="graph_layer">
        <path d="M270.0,158.4 L390.51788174492185,197.55863352719334 A126.72000000000001,126.72000000000001 0, 1, 1, 395.4748818532665 176.12039570407 Z" stroke="none" fill="#FFB200"/>
        <text x="121.84490018190871" y="133.64722703622812" font-size="19.008" font-family="" fill="#999999" text-anchor="middle">97%</text>
        <path d="M270.0,158.4 L395.4748818532665,176.12039570407 A126.72000000000001,126.72000000000001 0, 0, 1, 394.4175929297036 182.44622568260104 Z" stroke="none" fill="#FFFF00"/>
        <text x="419.9835171880792" y="192.97200087548165" font-size="19.008" font-family="" fill="#999999" text-anchor="middle">0%</text>
        <path d="M270.0,158.4 L394.4175929297036,182.44622568260104 A126.72000000000001,126.72000000000001 0, 0, 1, 393.3036504707229 187.62615576147158 Z" stroke="none" fill="#660099"/>
        <text x="418.6652366852827" y="199.87441597021973" font-size="19.008" font-family="" fill="#999999" text-anchor="middle">0%</text>
        <path d="M270.0,158.4 L393.3036504707229,187.62615576147158 A126.72000000000001,126.72000000000001 0, 0, 1, 393.04159653118677 188.71045897139564 Z" stroke="none" fill="#E9E9FF"/>
        <text x="417.8085799816704" y="203.62631487182978" font-size="19.008" font-family="" fill="#999999" text-anchor="middle">0%</text>
        <path d="M270.0,158.4 L393.04159653118677,188.71045897139564 A126.72000000000001,126.72000000000001 0, 0, 1, 392.9745924069389 188.9811710427717 Z" stroke="none" fill="#FFF7E6"/>
        <text x="417.6098027289496" y="204.43900012755682" font-size="19.008" font-family="" fill="#999999" text-anchor="middle">0%</text>
        <path d="M270.0,158.4 L392.9745924069389,188.9811710427717 A126.72000000000001,126.72000000000001 0, 0, 1, 392.5600713901664 190.60228719885149 Z" stroke="none" fill="#FFFFE6"/>
        <text x="417.32400921668415" y="205.57489598512842" font-size="19.008" font-family="" fill="#999999" text-anchor="middle">0%</text>
        <path d="M270.0,158.4 L392.5600713901664,190.60228719885149 A126.72000000000001,126.72000000000001 0, 0, 1, 391.58873514288234 194.09506809566292 Z" stroke="none" fill="#F7E6FF"/>
        <text x="416.5042734187842" y="208.6465817301031" font-size="19.008" font-family="" fill="#999999" text-anchor="middle">0%</text>
        <path d="M270.0,158.4 L391.58873514288234,194.09506809566292 A126.72000000000001,126.72000000000001 0, 0, 1, 391.50988428494713 194.36256972268197 Z" stroke="none" fill="#0F0F6B"/>
        <text x="415.85925996295657" y="210.89860872084606" font-size="19.008" font-family="" fill="#999999" text-anchor="middle">0%</text>
        <path d="M270.0,158.4 L391.50988428494713,194.36256972268197 A126.72000000000001,126.72000000000001 0, 0, 1, 391.4304449101053 194.62989716979448 Z" stroke="none" fill="#996B00"/>
        <text x="415.7642857657911" y="211.2195063596029" font-size="19.008" font-family="" fill="#999999" text-anchor="middle">0%</text>
        <path d="M270.0,158.4 L391.4304449101053,194.62989716979448 A126.72000000000001,126.72000000000001 0, 0, 1, 390.51788174492174 197.55863352719373 Z" stroke="none" fill="#999900"/>
        <text x="415.1796311347249" y="213.14043221547456" font-size="19.008" font-family="" fill="#999999" text-anchor="middle">0%</text>
      </g>
    </g>
    <g id="title" transform="translate(30.0, 7.2)">
      <text class="title" x="270.0" y="25.200000000000003" font-size="25.200000000000003" font-family="" fill="#999999" stroke="none" stroke-width="0" text-anchor="middle">ALT Genotype % Reported Dist.</text>
    </g>
    <g id="legend" transform="translate(360.0, 54.0)">
      <rect x="0" y="0.0" width="12.672" height="12.672" fill="#FFB200"/>
      <text x="25.344" y="15.206399999999999" font-size="20.275199999999998" font-family="" style="color: #999999" fill="#999999">0-10%</text>
      <rect x="0" y="25.344" width="12.672" height="12.672" fill="#FFFF00"/>
      <text x="25.344" y="40.550399999999996" font-size="20.275199999999998" font-family="" style="color: #999999" fill="#999999">10-20%</text>
      <rect x="0" y="50.688" width="12.672" height="12.672" fill="#660099"/>
      <text x="25.344" y="65.8944" font-size="20.275199999999998" font-family="" style="color: #999999" fill="#999999">20-30%</text>
      <rect x="0" y="76.03200000000001" width="12.672" height="12.672" fill="#E9E9FF"/>
      <text x="25.344" y="91.23840000000001" font-size="20.275199999999998" font-family="" style="color: #999999" fill="#999999">30-40%</text>
      <rect x="0" y="101.376" width="12.672" height="12.672" fill="#FFF7E6"/>
      <text x="25.344" y="116.5824" font-size="20.275199999999998" font-family="" style="color: #999999" fill="#999999">40-50%</text>
      <rect x="0" y="126.72" width="12.672" height="12.672" fill="#FFFFE6"/>
      <text x="25.344" y="141.9264" font-size="20.275199999999998" font-family="" style="color: #999999" fill="#999999">50-60%</text>
      <rect x="0" y="152.06400000000002" width="12.672" height="12.672" fill="#F7E6FF"/>
      <text x="25.344" y="167.27040000000002" font-size="20.275199999999998" font-family="" style="color: #999999" fill="#999999">60-70%</text>
      <rect x="0" y="177.40800000000002" width="12.672" height="12.672" fill="#0F0F6B"/>
      <text x="25.344" y="192.61440000000002" font-size="20.275199999999998" font-family="" style="color: #999999" fill="#999999">70-80%</text>
      <rect x="0" y="202.752" width="12.672" height="12.672" fill="#996B00"/>
      <text x="25.344" y="217.9584" font-size="20.275199999999998" font-family="" style="color: #999999" fill="#999999">80-90%</text>
      <rect x="0" y="228.096" width="12.672" height="12.672" fill="#999900"/>
      <text x="25.344" y="243.3024" font-size="20.275199999999998" font-family="" style="color: #999999" fill="#999999">90-100%</text>
    </g>
  </g>
</svg>
